<?xml version="1.0" standalone="no"?>
<!DOCTYPE svg PUBLIC "-//W3C//DTD SVG 20010904//EN"
 "http://www.w3.org/TR/2001/REC-SVG-20010904/DTD/svg10.dtd">
<svg version="1.0" xmlns="http://www.w3.org/2000/svg"
 width="300.000000pt" height="151.000000pt" viewBox="0 0 300.000000 151.000000"
 preserveAspectRatio="xMidYMid meet">
<metadata>
Created by potrace 1.10, written by Peter Selinger 2001-2011
</metadata>
<g transform="translate(0.000000,151.000000) scale(0.100000,-0.100000)"
fill="#000000" stroke="none">
<path d="M247 1147 c-44 -14 -95 -59 -103 -93 -14 -54 4 -90 80 -161 40 -37
80 -80 90 -95 25 -38 13 -84 -27 -109 -41 -24 -74 -24 -116 2 -33 20 -33 21
-27 73 6 57 -7 82 -36 71 -17 -7 -38 -47 -38 -71 0 -30 33 -85 59 -98 101 -52
250 -1 267 91 11 58 -4 85 -97 174 -76 73 -89 90 -89 117 0 63 73 103 131 72
14 -8 19 -21 19 -56 0 -32 5 -46 16 -51 26 -10 49 11 52 46 4 39 -11 59 -63
82 -46 21 -65 22 -118 6z"/>
<path d="M2595 1128 c-21 -19 -32 -49 -59 -157 -28 -116 -36 -135 -58 -147
-25 -13 -26 -13 -31 27 -7 51 -41 89 -79 89 -59 0 -94 -24 -169 -117 -21 -27
-37 -14 -37 30 -2 95 -103 116 -186 39 -60 -56 -75 -153 -31 -197 18 -19 35
-25 69 -25 53 0 96 31 127 91 27 54 59 54 59 0 0 -120 170 -122 227 -3 11 25
29 43 46 50 28 11 28 11 21 -21 -5 -18 -8 -50 -9 -72 0 -36 3 -40 26 -43 25
-3 27 0 34 45 10 74 34 135 63 166 29 30 52 35 52 11 0 -24 -19 -54 -35 -54
-8 0 -24 -9 -35 -20 -18 -18 -18 -21 -3 -57 28 -69 51 -93 88 -93 24 0 39 7
53 25 25 31 28 31 36 0 13 -51 94 -21 149 55 27 38 34 60 20 60 -5 0 -21 -21
-38 -45 -31 -47 -62 -66 -75 -45 -4 7 4 59 19 116 l28 104 -27 0 c-37 0 -45
-12 -66 -103 -28 -121 -60 -161 -96 -119 -15 18 -58 90 -58 98 0 2 8 4 19 4
24 0 70 37 81 64 22 60 -59 79 -112 26 -28 -29 -45 -39 -34 -22 3 5 18 58 34
118 16 60 33 117 37 127 10 25 -18 22 -50 -5z m-533 -253 c-4 -38 18 -75 45
-75 22 0 15 -27 -18 -65 -72 -81 -135 -15 -95 98 27 75 75 104 68 42z m62 19
c8 -21 8 -84 -1 -84 -19 0 -43 37 -43 67 0 26 4 33 19 33 10 0 22 -7 25 -16z
m221 -7 c-9 -35 11 -76 40 -83 31 -8 31 -11 0 -57 -27 -39 -68 -57 -94 -40
-41 26 -34 126 14 177 30 32 47 34 40 3z m67 -16 c12 -45 4 -65 -21 -52 -35
19 -38 96 -3 89 9 -2 20 -18 24 -37z"/>
<path d="M1606 1120 c-59 -19 -106 -53 -106 -77 0 -20 14 -16 40 12 43 46 184
71 244 44 30 -14 49 -57 40 -92 -7 -32 -57 -77 -84 -77 -25 0 -50 -10 -50 -20
0 -5 13 -11 29 -15 56 -12 90 -66 77 -121 -16 -64 -110 -113 -123 -64 -3 11
-9 20 -14 20 -13 0 -12 -5 11 -43 19 -32 24 -34 53 -27 112 25 177 115 138
192 -9 18 -29 39 -45 47 l-30 14 36 18 c45 23 68 59 68 104 0 49 -15 74 -55
91 -47 19 -158 17 -229 -6z"/>
<path d="M2810 1080 c-34 -34 -19 -70 30 -70 33 0 50 17 50 51 0 42 -46 53
-80 19z"/>
<path d="M1643 1068 c-11 -13 -28 -45 -36 -73 -17 -51 -77 -300 -77 -316 0
-13 37 -11 45 1 5 8 11 7 21 -1 7 -6 21 -8 30 -5 13 5 14 9 4 21 -8 10 -11 32
-7 63 5 43 61 286 74 318 9 23 -31 16 -54 -8z"/>
<path d="M1363 1055 c-13 -9 -27 -34 -33 -55 -10 -36 -14 -40 -41 -40 -20 0
-29 -4 -26 -12 2 -7 14 -12 26 -11 25 3 25 5 5 -82 -16 -66 -20 -73 -67 -108
-76 -55 -137 -49 -137 15 0 22 5 28 22 28 12 0 41 9 64 20 92 45 77 144 -19
126 -54 -10 -113 -70 -128 -129 -9 -37 -20 -54 -48 -73 -63 -43 -121 -27 -121
34 0 15 9 21 38 26 20 3 54 17 75 31 31 21 37 32 37 60 0 93 -147 61 -192 -42
-14 -31 -25 -43 -36 -41 -12 3 -16 11 -13 28 10 60 6 115 -9 115 -11 0 -14 -9
-12 -30 4 -49 -18 -122 -49 -165 -44 -61 -53 -45 -44 81 l7 109 -26 0 c-21 0
-26 -6 -31 -37 -7 -44 -71 -183 -84 -183 -5 0 -8 48 -8 107 2 97 0 108 -17
111 -10 2 -22 0 -26 -5 -5 -4 -10 -64 -11 -133 -3 -123 -2 -125 20 -128 28 -4
65 28 94 83 l22 40 5 -60 c5 -56 7 -60 31 -63 25 -3 68 34 109 96 22 32 60 20
60 -20 0 -42 40 -78 85 -78 39 0 87 21 123 53 13 12 22 15 22 8 0 -26 49 -61
86 -61 42 0 118 40 134 71 13 24 30 17 23 -10 -8 -30 14 -61 43 -61 29 0 75
22 94 45 18 22 4 32 -18 12 -26 -24 -51 -21 -58 7 -3 13 5 64 18 112 24 89 24
89 59 92 49 5 62 22 16 22 -42 0 -42 0 -23 63 13 43 13 47 -3 47 -9 0 -26 -7
-38 -15z m-413 -192 c-16 -28 -77 -70 -87 -59 -10 9 29 86 51 102 18 12 22 12
36 -1 13 -14 13 -18 0 -42z m230 19 c0 -32 -21 -55 -63 -71 -22 -9 -27 -8 -27
5 0 36 44 94 72 94 13 0 18 -7 18 -28z"/>
<path d="M1426 685 c4 -11 7 -28 8 -37 0 -9 3 -15 7 -13 9 6 30 -45 24 -56 -4
-5 -1 -9 5 -9 7 0 10 -6 7 -12 -2 -7 -10 -12 -16 -10 -12 2 -15 -11 -4 -21 3
-4 13 -1 21 6 13 10 15 9 10 -11 -4 -13 -2 -20 4 -16 12 8 2 54 -28 118 -25
55 -52 98 -38 61z"/>
<path d="M1233 615 c-46 -44 -47 -46 -28 -60 63 -45 63 -45 19 -39 l-41 6 -48
-67 c-38 -52 -45 -69 -34 -75 11 -7 10 -12 -4 -28 -21 -23 -22 -32 -2 -32 8 0
12 6 9 13 -2 7 4 21 14 30 16 15 28 16 74 9 30 -5 63 -5 73 -2 22 8 -51 20
-116 20 -22 0 -39 2 -39 5 0 3 19 31 42 61 40 53 43 55 77 49 45 -8 97 -38 93
-54 -1 -7 2 -10 7 -6 6 3 21 -4 35 -16 21 -18 24 -25 14 -38 -10 -13 -10 -14
2 -3 12 10 21 5 54 -25 39 -37 39 -37 13 -5 -25 31 -140 134 -212 190 l-30 24
30 27 c34 31 60 61 52 61 -3 0 -27 -20 -54 -45z"/>
<path d="M1582 611 c-37 -65 -53 -121 -42 -140 9 -14 10 -14 9 4 -3 41 1 56
13 49 6 -4 8 -3 4 4 -3 6 -2 21 3 35 13 34 57 31 54 -4 -2 -21 -1 -22 8 -6 5
9 7 22 4 27 -3 6 1 13 9 16 9 3 16 11 16 16 0 6 -7 5 -16 -3 -15 -12 -54 -21
-54 -12 0 3 5 13 11 25 20 38 3 28 -19 -11z"/>
<path d="M1742 634 c-13 -9 -26 -14 -29 -11 -16 17 -154 -229 -168 -298 -3
-16 5 -3 18 30 40 101 48 114 68 110 10 -2 21 1 25 6 3 5 0 8 -7 7 -25 -6 -18
20 20 73 21 30 55 63 74 73 l34 19 39 -29 c22 -15 41 -30 44 -32 3 -2 -6 -12
-20 -22 -14 -11 -21 -20 -17 -20 12 0 57 31 57 40 0 10 -90 70 -104 70 -7 0
-22 -7 -34 -16z"/>
<path d="M1393 573 c4 -3 1 -13 -6 -21 -9 -12 -9 -14 0 -9 15 10 48 -38 37
-54 -4 -7 -3 -9 4 -5 6 4 22 -24 41 -71 16 -43 30 -73 30 -67 1 5 -10 39 -24
73 -13 35 -22 68 -19 72 3 5 1 9 -5 9 -6 0 -20 18 -31 40 -11 22 -23 40 -27
40 -3 0 -3 -3 0 -7z"/>
<path d="M1712 464 c-43 -34 -92 -79 -108 -100 -43 -54 -52 -77 -14 -32 18 21
37 35 43 31 5 -3 7 -1 4 5 -8 12 91 105 103 97 5 -3 16 -2 26 2 16 6 16 7 -2
13 -14 5 -6 11 35 25 l53 17 44 -43 c24 -23 42 -44 41 -45 -1 -2 -45 -12 -97
-24 -94 -21 -201 -62 -219 -84 -5 -6 22 4 60 22 39 19 88 35 109 36 21 0 36 4
34 7 -2 4 17 10 42 14 25 3 47 5 48 3 1 -2 14 -20 29 -40 15 -20 27 -41 27
-47 0 -6 5 -11 10 -11 16 0 11 12 -20 54 -34 44 -37 56 -15 56 24 0 18 13 -32
62 -68 66 -97 64 -201 -18z"/>
<path d="M1509 393 c-1 -38 -1 -86 0 -108 l3 -40 -29 32 c-15 17 -41 39 -58
48 l-30 17 25 -22 c17 -14 19 -20 8 -16 -10 3 -20 1 -23 -3 -2 -5 8 -11 23
-15 15 -3 41 -17 57 -31 25 -21 28 -27 15 -35 -9 -6 -10 -10 -3 -10 7 0 25 11
40 25 24 22 25 25 8 23 -19 -3 -20 3 -20 100 0 112 -14 143 -16 35z"/>
<path d="M1751 336 c10 -8 129 -13 129 -5 0 5 -30 9 -67 9 -36 0 -64 -2 -62
-4z"/>
<path d="M1067 260 l-57 -69 237 -5 c290 -6 266 -6 556 0 130 3 237 7 237 10
0 3 -21 30 -46 59 -25 30 -43 59 -39 65 4 6 -8 9 -32 9 -26 -2 -30 -3 -13 -6
14 -2 31 -13 38 -24 14 -21 12 -21 -78 2 -19 5 -66 9 -105 10 -50 1 -63 3 -45
9 l25 8 -25 1 c-27 1 -136 -46 -127 -55 3 -3 13 -1 24 5 36 19 59 23 133 22
112 -2 214 -28 238 -61 l20 -26 -216 -2 c-135 -1 -219 -5 -225 -11 -14 -14
-70 -14 -83 -1 -7 7 -89 11 -223 11 l-212 0 20 28 c16 22 34 31 98 44 43 9 89
19 103 21 17 2 14 4 -10 4 -32 1 -92 -9 -145 -25 -18 -5 -18 -3 4 21 14 14 20
26 15 25 -5 0 -35 -32 -67 -69z"/>
<path d="M1660 229 c-29 -4 1 -7 84 -7 71 -1 127 0 125 2 -8 8 -164 12 -209 5z"/>
<path d="M1243 223 c31 -2 83 -2 115 0 31 2 5 3 -58 3 -63 0 -89 -1 -57 -3z"/>
</g>
</svg>
